<?xml version="1.0" encoding="utf-8"?>
<!-- Generator: Adobe Illustrator 15.1.0, SVG Export Plug-In . SVG Version: 6.00 Build 0)  -->
<!DOCTYPE svg PUBLIC "-//W3C//DTD SVG 1.1//EN" "http://www.w3.org/Graphics/SVG/1.1/DTD/svg11.dtd">
<svg version="1.1" id="Layer_1" xmlns="http://www.w3.org/2000/svg" xmlns:xlink="http://www.w3.org/1999/xlink" x="0px" y="0px"
	 width="500px" height="200px" viewBox="56 296 500 200" enable-background="new 56 296 500 200" xml:space="preserve">
<g>
	<path d="M246.309,368.319l-0.722,5.556c-0.186-0.068-0.447-0.159-0.798-0.271c-3.541-1.248-6.302-1.87-8.279-1.87
		c-3.954,0-7.175,1.248-9.661,3.747c-2.482,2.503-3.727,5.714-3.727,9.637c0,3.754,1.189,6.825,3.565,9.197
		c2.376,2.378,5.477,3.565,9.3,3.565c0.863,0,2.125-0.271,3.789-0.821c0.364-0.113,0.633-0.199,0.798-0.244l0.027-9.053h-6.557
		v-5.009h13.137v18.297c-2.613,0.866-4.769,1.466-6.484,1.794c-1.712,0.333-3.349,0.499-4.91,0.499
		c-6.151,0-11.002-1.637-14.55-4.909c-3.549-3.277-5.322-7.736-5.322-13.393c0-5.749,1.815-10.29,5.438-13.622
		c3.618-3.332,8.585-5,14.905-5c1.516,0,3.875,0.396,7.079,1.2C244.651,367.93,245.642,368.164,246.309,368.319z"/>
	<path d="M266.978,376.068c4.284,0,7.653,1.207,10.104,3.614c2.452,2.406,3.683,5.734,3.683,9.97c0,4.223-1.234,7.551-3.692,9.984
		c-2.462,2.438-5.824,3.655-10.095,3.655c-4.277,0-7.632-1.214-10.07-3.641c-2.444-2.424-3.665-5.759-3.665-9.999
		c0-4.236,1.218-7.561,3.648-9.97C259.325,377.272,262.688,376.068,266.978,376.068z M266.978,380.879
		c-2.015,0-3.644,0.804-4.902,2.41c-1.251,1.599-1.885,3.71-1.885,6.319c0,2.588,0.633,4.686,1.885,6.278
		c1.251,1.595,2.888,2.396,4.902,2.396c2.042,0,3.686-0.791,4.92-2.369c1.241-1.578,1.853-3.679,1.853-6.305
		c0-2.644-0.618-4.762-1.863-6.347C270.643,381.673,269,380.879,266.978,380.879z"/>
	<path d="M286.644,364.424h6.636v38.194h-6.636V364.424z"/>
	<path d="M316.639,364.424l-0.352,4.861c-0.482-0.182-0.924-0.313-1.32-0.398c-0.396-0.08-0.756-0.121-1.074-0.121
		c-1.297,0-2.256,0.416-2.865,1.255c-0.617,0.839-0.92,2.141-0.92,3.902v2.816h6.129v4.937h-6.129v20.938h-6.581v-20.938h-5.413
		v-4.937h5.412v-3.314c0-3.125,0.773-5.487,2.324-7.093c1.555-1.602,3.831-2.406,6.821-2.406c0.715,0,1.402,0.041,2.068,0.124
		C315.408,364.135,316.039,364.259,316.639,364.424z"/>
	<path d="M336.006,367.191h11.74c4.07,0,7.166,0.777,9.277,2.331c2.109,1.551,3.162,3.837,3.162,6.842
		c0,1.925-0.57,3.576-1.721,4.934c-1.145,1.365-2.764,2.328-4.861,2.892c2.441,0.499,4.318,1.488,5.611,2.967
		c1.297,1.481,1.945,3.348,1.945,5.611c0,3.208-1.162,5.648-3.475,7.33c-2.318,1.682-5.723,2.516-10.211,2.516h-11.469V367.191
		L336.006,367.191L336.006,367.191z M342.885,372.176v9.772h3.314c2.293,0,4.037-0.413,5.223-1.245
		c1.189-0.829,1.781-2.036,1.781-3.613c0-1.613-0.555-2.833-1.672-3.665c-1.117-0.829-2.75-1.245-4.912-1.245h-3.734V372.176z
		 M342.885,386.888v10.569h3.74c2.428,0,4.277-0.457,5.549-1.372c1.273-0.915,1.904-2.242,1.904-3.988
		c0-1.695-0.59-2.991-1.766-3.878c-1.184-0.891-2.908-1.334-5.191-1.334h-4.236V386.888z"/>
	<path d="M366.793,376.739h6.686v13.738c0,2.393,0.408,4.153,1.244,5.285c0.832,1.127,2.125,1.691,3.863,1.691
		c1.98,0,3.486-0.784,4.525-2.355c1.037-1.571,1.553-3.844,1.553-6.817v-11.545h6.686v25.877h-6.086v-4.961
		c-0.963,1.762-2.223,3.099-3.775,4.007c-1.555,0.903-3.352,1.358-5.396,1.358c-3.039,0-5.354-0.942-6.932-2.83
		s-2.369-4.647-2.369-8.29V376.74h0.002V376.739z"/>
	<path d="M415.029,376.368l-0.244,5.982c-0.354-0.116-0.715-0.203-1.096-0.261c-0.385-0.055-0.783-0.085-1.197-0.085
		c-2.193,0-3.867,0.729-5.016,2.183c-1.146,1.455-1.715,3.568-1.715,6.343v12.092h-6.637v-25.879h5.957v5.161
		c0.83-1.925,1.881-3.374,3.152-4.333c1.271-0.966,2.771-1.447,4.502-1.447c0.299,0,0.635,0.021,0.996,0.062
		C414.107,376.22,414.535,376.285,415.029,376.368z"/>
	<path d="M443.803,387.211v15.406h-6.707v-13.986c0-2.393-0.404-4.16-1.236-5.298c-0.818-1.139-2.105-1.705-3.852-1.705
		c-1.855,0-3.336,0.725-4.436,2.18c-1.102,1.454-1.646,3.441-1.646,5.944v12.861h-6.633v-25.877h6.059v4.689
		c0.98-1.764,2.248-3.098,3.803-4.002c1.555-0.912,3.352-1.362,5.396-1.362c3.039,0,5.344,0.945,6.904,2.833
		C443.021,380.782,443.803,383.553,443.803,387.211z"/>
	<path d="M472.549,387.858v14.755h-5.887l-0.1-4.185c-1.078,1.597-2.357,2.806-3.836,3.624c-1.482,0.822-3.125,1.238-4.938,1.238
		c-2.588,0-4.686-0.76-6.281-2.283c-1.596-1.52-2.393-3.482-2.393-5.896c0-2.869,1.137-5.028,3.414-6.466
		c2.279-1.437,5.684-2.156,10.223-2.156h3.412v-0.371c0-1.764-0.553-3.132-1.67-4.102c-1.111-0.973-2.682-1.458-4.711-1.458
		c-1.148,0-2.338,0.175-3.578,0.522c-1.242,0.351-2.518,0.87-3.83,1.568l-0.098-4.738c1.545-0.629,3.064-1.101,4.563-1.396
		c1.496-0.295,3.002-0.447,4.512-0.447c3.889,0,6.725,0.946,8.512,2.833C471.656,380.782,472.549,383.77,472.549,387.858z
		 M463.822,390.251c-2.709,0-4.75,0.378-6.115,1.134c-1.375,0.757-2.059,1.885-2.059,3.381c0,1.127,0.389,2.049,1.168,2.754
		c0.783,0.705,1.809,1.059,3.066,1.059c1.832,0,3.332-0.646,4.512-1.934c1.182-1.285,1.77-2.957,1.77-4.996v-1.399L463.822,390.251
		L463.822,390.251z"/>
	<path d="M479.701,364.424h6.676v16.18c0.984-1.479,2.191-2.603,3.629-3.376c1.439-0.774,3.07-1.159,4.898-1.159
		c3.342,0,6.02,1.196,8.041,3.593c2.018,2.394,3.027,5.584,3.027,9.572c0,4.088-1.029,7.409-3.092,9.959
		c-2.064,2.551-4.721,3.826-7.98,3.826c-2.012,0-3.807-0.48-5.383-1.447c-1.576-0.959-2.852-2.353-3.814-4.16v5.205h-6.01v-38.194
		L479.701,364.424L479.701,364.424z M493.014,381.081c-2.043,0-3.662,0.757-4.85,2.27c-1.188,1.513-1.783,3.582-1.783,6.206
		c0,2.564,0.584,4.6,1.746,6.109s2.727,2.27,4.688,2.27c1.877,0,3.387-0.75,4.523-2.244c1.137-1.497,1.705-3.49,1.705-5.983
		c0-2.626-0.551-4.72-1.656-6.281C496.279,381.858,494.824,381.081,493.014,381.081z"/>
	<path d="M508.941,376.739h7.182l6.432,19.796l6.283-19.796h6.701l-10.221,27.051c-1.395,3.739-2.91,6.336-4.545,7.777
		c-1.643,1.446-3.797,2.168-6.477,2.168c-0.445,0-0.979-0.033-1.605-0.099c-0.625-0.065-1.352-0.166-2.18-0.3l0.57-5.208
		c0.369,0.117,0.727,0.207,1.086,0.266c0.359,0.055,0.713,0.088,1.061,0.106c1.299,0,2.398-0.378,3.305-1.142
		c0.906-0.771,1.773-2.039,2.602-3.817L508.941,376.739z"/>
</g>
<g>
	<path d="M205.772,465.789c-45.476,3.789-59.506,10.944-96.981,16.06c-43.85,6.52-46.434-1.608-45.698-5.664
		c1.187-6.539,94.464-30.649,232.425-26.039c98.554,3.304,257.103,25.774,246.817,33.531
		C321.852,450.084,247.76,462.293,205.772,465.789z"/>
</g>
<g>
	<g>
		<g>
			<g>
				<g>
					<g>
						<polygon points="205.734,463.571 208.461,463.875 209.185,462.368 						"/>
						<path d="M218.879,467.726l4.524-0.992c-2.977-3.957,0.67-3.041-6.745-5.432c-2.468,0.873-7.888,2.789-7.028,4.356
							c1.799-0.316,4.319-2.138,7.035-1.854c-1.038,1.311-3.926,1.396-5.161,3.083c4.446,0.932,2.659-1.255,7.458-1.078
							L218.879,467.726z"/>
						<path d="M223.951,463.106c-0.368,0.756-0.743,1.506-0.623,2.09C223.7,464.438,225.862,463.365,223.951,463.106z"/>
						<path d="M226.698,462.446c2.908-0.081,0.082,1.545,0.384,1.748l3.087-2.961L226.698,462.446z"/>
						<path d="M238.765,461.709l1.348-0.337C239.625,460.969,239.252,461.347,238.765,461.709z"/>
						<path d="M244.686,460.997c-1.245-0.846-2.709-0.196-4.573,0.375l0.199,0.154c1.709,0.681,0.275,2.699-2.431,2.375
							c-2.764,0.637-2.661-1.285-4.992,0.147l3.442,1.317C240.689,464.799,243.007,461.88,244.686,460.997z"/>
						<path d="M238.765,461.709l-1.56,0.237C237.926,462.217,238.38,461.994,238.765,461.709z"/>
						<polygon points="232.693,461.922 231.232,462.44 231.647,463.224 						"/>
						<path d="M254.566,460.313c-0.547,2.637-7.097,0.078-7.753,2.168c3.903-0.344,7.114,1.438,6.34,2.916l4.264-1.027
							C258.795,463.315,256.892,461.444,254.566,460.313z"/>
						<path d="M263.299,466.584l0.973-0.495C263.809,466.224,263.413,466.364,263.299,466.584z"/>
						<path d="M284.959,461.558l-10.025,2.809c0.922-0.877,0.522-1.684,2.822-2.039c-4.473-0.258-5.006,1.427-8.695,1.281
							c-1.183-2.416,6.501-0.363,4.319-2.484c-2.592,0.13-6.485,0.368-8.5,2.496l-4.181-1.488l1.509,2.623
							c1.681,0.705,3.28-2.242,4.37-0.404c0.557,1.133-1.101,1.396-2.263,1.726c2.638-0.63,7.299,1.832,12.652,1.385
							C282.636,467.067,281.24,462.884,284.959,461.558z"/>
						<polygon points="285.399,464.493 286.054,465.535 285.579,464.132 						"/>
						<path d="M296.377,460.956l-5.264,1.686c-0.564-0.225-0.884-0.793-1.258-1.277c0.223,0.613-1.193,1.664-0.963,2.181
							c2.42,2.414,6.401-0.787,9.228-1.209c7.439,1.155-0.351,1.302,2.544,3.617c-2.08-0.076-2.152-0.685-5.047-0.829
							c4.531,2.74,10.246,0.277,13.175-0.354c-0.84-0.248-1.039-1.019-2.655-0.814l3.036-0.75
							C306.06,461.221,303.38,460.685,296.377,460.956z"/>
						<path d="M286.977,461c1.953-0.203,2.689-0.021,2.852,0.315C289.312,460.663,288.652,460.192,286.977,461z"/>
						<path d="M310.381,464.728c-0.326-0.156-0.873-0.106-1.588,0.037C309.156,464.882,309.625,464.909,310.381,464.728z"/>
						<path d="M307.432,461.801l3.686,0.313l-1.43-1.17C309.18,461.069,307.355,461.206,307.432,461.801z"/>
						<path d="M447.633,474.742c-0.229-1.028-1.521-1.64-4.375-1.736c0.479-1.278,4.115-0.644,5.912-1.224
							c-3.65-1.234,0.229-1.523-0.588-2.889c-4.168-0.557-6.199,0.959-10.637,0.151c0.264-0.351,0.244-0.938-0.289-1.451
							c-5.463,0.251-14.711,0.653-19.855-0.979c-5.021-0.945-8.842-0.649-14.449-0.551c-18.268-2.209-37.465-2.199-57.139-4.354
							l-2.916,2.435c-0.893-1.313-4.682-0.218-4.053-1.847c1.055,0.368,2.102,0.147,3.395,0.179
							c-4.127-2.455-11.209-0.262-16.242-1.244c0.566,0.467,1.326,2.72-0.213,3.076c0.48-2.836-5.98-0.117-7.387-3.431
							c-5.047-0.933-0.246,2.479-5.508,1.921c-0.588,1.668,5.033,0.901,5.949,2.211c-1.676,1.303-4.748-0.678-4.539,1.09
							c8.402,0.989,24.162-1.998,37.156-2.256l-1.445,1.495c6.668-0.801,17.373-0.22,22.477,2.706
							c-1.137-1.605,9.674,1.475,8.932-1.991c1.617,0.901,2.133,0.804,4.486,1.269l0.727-1.034c3.385,0.271,2.711,1.903,6.588,2.106
							c-2.414-1.67,0.434-1.873,1.664-2.998c4.316,1.978,9.367,3.834,13.209,5.52c-0.27-0.496-0.588-1.063-1.885-1.814
							c2.645,0.752,2.301-0.691,3.057-1.119c2.59,0.155,2.156,2.021,1.953,2.953c4.699,0.99,7.146-2.406,10.592-0.863l-1.117-1.618
							c4.941,0.106,8.881,2.125,14.334,2.173c2.4,2.316-4.609,1.316-6.932,2.011c1.059,0.533,3.369,0.86,4.033,1.619
							c2.418-0.808,6.42-1.853,9.393-2.555C438.936,473.834,445.797,474.396,447.633,474.742z"/>
						<path d="M432.516,474.261c-0.684,0.244-1.273,0.471-1.621,0.667c0.535-0.079,1.033-0.168,1.813,0.007
							C432.809,474.685,432.715,474.463,432.516,474.261z"/>
						<path d="M447.633,474.742l0.088,0.243C448.27,474.903,448.098,474.832,447.633,474.742z"/>
						<polygon points="417.107,466.419 417.795,466.618 418.674,466.763 						"/>
						<path d="M412.457,472.894c-0.996-0.609-2.389-1.275-3.975-1.971C408.875,471.647,409.211,472.212,412.457,472.894z"/>
						<path d="M379.65,468.578c-1.029,0.192-0.482,0.69-1.229,1.124C380.512,469.911,381.246,469.476,379.65,468.578z"/>
						<polygon points="438.395,475.251 442.541,475.203 444.092,474.959 						"/>
						<path d="M522.326,477.224c-3.379-2.25-8.832-1.849-13.242-2.773c-8.291-0.124-1.531,3.758-9.309,2.999l1.795-3.519
							c-7.773-0.731-18.709-2.867-25.668-0.371c-0.541-0.52-1.84-1.23,0.232-1.533c-5.197-0.444-3.291,4.942-10.051,2.914
							c6.713-1.533-1.865-2.416,0.158-4.489l1.047-0.147c-4.422-0.255-10.363,0.344-13.234-0.141
							c-0.223,0.928,2.141,2.668-1.742,2.355c1.543,0.36,0.803,1.36,0.561,2.303c4.129-0.616,6.234,0.265,8.795-0.709
							c2.105,1.479-1.551,0.23,0.547,1.707l3.354-0.799c2.322,0.562-2.582,0.978,1.076,1.645c0.504-0.674,3.576-1.104,6.447-0.612
							l-0.883,0.327c2.27-0.23,5.314,0.75,4.486-1.438l2.361,2.345l-0.285-1.45c5.979,1.244,7.844,4.889,15.857,4.094
							c-1.826-0.648-0.021-1.191,1.014-1.337c-3.141-1.358-4.133,0.567-7.244,0.382c-0.289-1.451,5.156-2.479,1.514-3.771
							c3.898,2.151,7.791,0.739,9.104,4.428c4.916,0.815,7.008-0.619,11.924,0.839l-0.219,0.492
							c1.225-2.169,3.947,1.571,7.979-0.307l-2.578-0.855c0.244-0.928,1.531-0.794,3.357-0.732c-0.25,0.338-0.25,0.338,0.275,0.871
							c0.756-1.606,6.457-1.104,7.238-1.504c-2.352-0.607-5.445,0.368-8.289,0.438C520.25,478.084,520.006,476.627,522.326,477.224z
							"/>
						<path d="M470.521,476.995l1.689-0.62C471.541,476.44,470.928,476.606,470.521,476.995z"/>
						<path d="M543.18,477.049c-3.502-2.328,1.563-1.015-1.486-3.2c-3.854-0.369,2.945,3.877-1.078,4.012
							c-1.492-1.774-5.119-1.004-6.352-1.266c1.646-0.595,1.443-2.947,0.982-3.539c-1.381,0.26-3.848-1.488-5.93-2.011
							c4.789,2.538-4.469-0.161-0.203,2.373c-0.629,1.168-5.566,1.142-7.289-0.241c0.324-0.917,1.85-0.392,3.148-0.165
							c1.41-1.54-3.025-1.637-3.443-3.362c-5.336,1.427-20.791-1.266-17.051,3.441c1.533,1.049,3.105,0.307,4.918,0.443
							c-4.889-1.623,0.318-2.121,0.871-2.743c2.025,1.014,5.941,0.401,4.842,1.674l-3.656,0.884
							c5.373,1.311,11.764,2.631,18.279,4.078c3.225,0.732,6.59,1.506,9.465,2.551c2.6,1.303,0.406,0.502,2.758-1.424l-4.861-0.445
							l5.445,0.817c-0.787,0.994-3.377,0.711-5.449,0.959l2.301,2.995c-1.541-0.413-3.104-0.223-2.838-1.141
							c-2.07,0.853-1.285,1.646-0.26,2.705c-4.133-0.082-4.66-1.207-8.025,0.09c3.232,1.539,4.721,1.285,6.336,1.014
							c0.805-0.137,1.65-0.275,2.752-0.199l1.887,0.313l1.148,0.327l0.633,0.216l0.338,0.124l0.172,0.068
							c8.305-1.99,2.873-0.982,4.994-1.701C550.295,478.761,543.52,475.574,543.18,477.049z"/>
						<polygon points="529.322,482.616 531.129,481.505 528.535,481.815 						"/>
						<path d="M532.689,477.155c0.006,0.589-1.033,0.72-1.025,1.308C534.773,479.28,534.512,478.421,532.689,477.155z"/>
						<path d="M517.373,468.749l-4.158-0.275l2.563,0.978C515.818,468.858,516.846,468.776,517.373,468.749z"/>
						<path d="M487.742,470.978c5.676,0.564,8.279-0.31,14.424,2.039c3.398-1.207-0.936-3.465,0.656-4.806
							c-3.115-0.881-3.18,2.101-6.543,2.146c-0.986-1.674-4.848-0.396-7.922-1.207C488.646,469.826,488.541,470.521,487.742,470.978
							z"/>
						<path d="M469.053,462.592c-2.596-0.348-5.359,0.472-7.322-0.499c0.408-0.9,2.002-1.042,3.537-0.598
							c-0.74-2.245-2.912-0.042-5.537-1.809c0.219,0.258,1.186,0.75,0.34,1.104c-6.918-1.344-4.133,1.244-13.057-1.045
							c-1.381,0.42-2.67,0.261-2.615,1.691c-4.938-2.387-2.338-2.078-8.352-4.336c0.146,0.846,1.967,2.967,1.717,4.729
							c-8.463-3.473-8.969-0.657-14.346-3.115c0.641-0.031,1.424-0.393,2.916,0.007c-0.461-2.555-4.738-0.075-7.791-0.874
							l0.525-2.08c-2.91,0.045-7.998,0.901-11.457-1l0.928-0.98c-7.502,0.884-16.008-0.68-22.332-0.443l-3.256-1.611
							c-8.762,0.846,8.504,1.504,1.914,4.095c-0.604-3.968-4.561,0.874-9.332-1.101c-2.18-1.74,5.039-0.375,2.623-2.373
							c-1.252,1.892-2.668,0.352-5.326,0.713c0.723-1.836-5.449-0.72-3.652-2.701l-9.48,2.765c-1.398-1.183-4.084-1.217-6.074-1.083
							c4.969,0.382-1.572,2.699,3.93,3.982c8.17-0.297,21.758,0.205,31.77,2.121c1.348-2.479,6.49,0.64,8.303-1.316
							c0.154,0.846,0.85,1.626,1.016,2.477c6.566,0.082-1.396-1.564,0.279-2.349c2.891-0.062,5.037,1.712,4.684,2.624
							c4.648,0.598,0.586-0.653,3.105-1.818l2.76,3.146c14.625,0.591,34.105,0.829,50.428,4.518l-1.031-1.925
							c7.371,1.922,13.061-2.307,19.188,2.376l2.469-1.2c-1.348,0.691,0.926,2.84-1.193,3.758c2.109-0.306,4.178,0.664,6.357,0.414
							l-3.604-1.369c2.818-1.131,5.568,0.203,6.248,1.653c5.834-0.965-2.861-3.555-3.896-5.202
							c-8.316,2.163-7.488-4.287-15.252-3.939C464.355,460.416,469.465,461.698,469.053,462.592z"/>
						<path d="M478.131,468.743l1.201-0.313L478.131,468.743z"/>
						<path d="M353.621,452.044c-0.588-0.052-1.281-0.072-2.217-0.063C350.621,452.374,351.846,452.151,353.621,452.044z"/>
						<polygon points="488.352,469.147 488.334,469.128 488.275,469.138 						"/>
						<polygon points="492.734,465.384 490.646,465.017 490.893,465.879 						"/>
						<path d="M331.539,448.31l-0.076,0.933C331.67,448.967,331.77,448.664,331.539,448.31z"/>
						<path d="M271.11,445.563l1.313,0.076C272.012,445.478,271.544,445.498,271.11,445.563z"/>
						<path d="M126.494,456.106c-3.825,1.152-8.932,2.489-11.565,4.422l0.13-0.974c-2.015,0.747-8.454,3.449-3.859,4.329l0.908-0.99
							c4.672-2.199,3.813,0.969,7.724,0.98c4.538-1.107,6.693-5.082,10.936-4.76c1.792-0.336,1.633,0.641,1.197,1.41
							c4.16-0.271,5.432-3.166,8.241-3.871c1.963,6.812,12.525-3.375,19.147,0.464c3.823-1.003,9.076-0.759,13.911-2.599
							c-2.489,1.986,4.676-0.25,3.75,1.836c1.09-4.318,14.375,0.842,14.911-4.412c6.828,1.021,0.254-0.367,8.111,0.354
							c0.014,0.581-1.286,0.667-1.795,0.804c3.136,0.86,4.614-2.488,7.285-0.233c6.251,0.12,0.98-1.444,4.624-3.009
							c6.53,0.332,4.728,1.107,8.399,3.096c0.488-2.493,4.394-1.514,7.537-2.833c-0.801-0.103-5.24-0.481-2.373-1.492
							c7.574,0.213,6-1.767,13.085-2.603c3.638,2.649-7.068,0.24-0.798,2.262c-4.448,1.372-7.846,1.324-10.18,3.376
							c5.999,0.007,13.285-0.595,19.831-1.901c3.645,0.344-1.839,1.301,1.018,1.537c6.501,1.189,9.967-2.809,15.166-1.609
							l-1.077,1.41c3.167-1.898,11.46,0.371,17.494-0.479c-0.764-0.732-1.256-1.217-0.458-1.667
							c-0.158,3.544,8.431-1.679,14.323,0.948c-0.409-2.276,5.418-3.406,9.098-3.479c1.271,0.667,0.955,1.582,0.921,2.169
							c-5.948-1.529-5.886,2.229-10.638,3.18c3.975-1.121,10.432,0.373,13.924-1.145l-1.416,1.708
							c5.436,0.499,4.944-3.774,10.579-1.842l-0.629,1.261c11.498,0.372,24.811,3.535,34.189,1.296
							c0.879-1.011-3.584-3.848-3.766-4.679c-5.563,0.553-8.854,2.201-13.109,2.895l0.186-2.023
							c-1.037,1.331-6.127,1.85-3.402,3.101c-3.473,0.843-2.488-1.937-6.479-0.977c0.439-2.107,2.791-2.208,2.93-3.972l-3.486,0.862
							c1.129-0.767-2.012-0.821-0.922-1.592c-6.471,2.221-8.809-1.417-15.439-0.563l3.636,0.522
							c-0.078,1.183-2.162,0.966-3.75,1.245c-1.726-1.717-2.805-1.53-6.153-2.376c-2.937,0.812-4.621,2.909-8.545,2.815
							c0.898-2.218-6.49-1.338-7.188-3.238c-0.884,2.207-7.622,0.64-8.189,1.918c-2.104,0.412-4.972,0.105-4.944-1.057
							c0.303-0.076,0.932-0.291,1.582-0.371l-2.09-0.104l0.371-0.491c-1.867-0.048-1.895,1.578-4.318,0.478
							c0.027-0.59,1.341-0.59,2.417-0.813c-5.003-0.378-8.736,3.399-12.886,1.382c-0.821,1.053-6.57,1.156-5.305,3.524
							c-1.558-0.812-0.983-2.753-5.178-2.341c-2.383,2.06-4.703-0.623-7.866,0.731c4.194-2.194,0.003-0.581,3.676-2.668
							c-2.878-0.766-7.072,2.025-12.044,1.761c-0.525-0.455-0.525-1.049-1.059-1.51c-1.832,0.75-3.902,2.407-5.755,0.844
							l0.272,1.405c-3.4-0.575-8.097,0.082-11.804-1.313l-4.115,2.886c-5.831-2.665-13.343,0.512-17.647,3.221
							c-2.094,0.007-5.233-0.274-5.268-0.877c0.461-0.237,1.252-0.698,2.181-1.124c-3.061,0.069-6.921-1.154-8.465,1.256
							c-3.074,0.945-2.424-1.353-4.789-1.523c-6.059,3.613-18.972-0.574-20.382,4.473c2.586-0.244,7.588,0.145,12.512-0.52
							c-1.251,0.699-0.145,1.544-1.963,1.818c-4.9,0.743-7.626-0.76-12.48,0.557l0.244-3.11
							C140.474,451.276,133.7,459.621,126.494,456.106z"/>
						<path d="M190.013,449.815l-3.727-1.319l0.467,1.296C187.856,449.507,188.992,449.428,190.013,449.815z"/>
						<path d="M186.753,449.792l-2.056,0.76c0.794-0.023,1.547-0.134,2.187-0.438L186.753,449.792z"/>
						<path d="M112.322,458.79c-0.803,0.014-2.383,0.035-3.876,0.646C109.526,459.625,111.603,459.392,112.322,458.79z"/>
						<polygon points="108.336,460.419 110.196,460.584 110.396,460.185 						"/>
						<path d="M117.143,475.558l5.415-2.668c1.148,0.773,7.382-1.435,5.573,0.529c3.002-2.713,10.716-1.967,7.409-4.622
							c-16.338,3.947-39.756,6.127-58.4,8.362l3.025-1.172c-10.375,2.166-12.157-4.313-14.333-1.436
							c0.581,0.723,1.528,1.016,2.422,0.801c-0.929,2.912,4.484-5.479,9.076-3.266l-0.736-0.895c1.223-0.34,1.831-0.014,3.066-0.348
							l-0.613-0.322c2.929-1.957,5.075-2.187,8.461-2.276c0.409,0.753-1.44,0.688-2.395,1.146c1.683,0.491,3.817-1.871,6.379-2.386
							c2.156,0.31,0.218,1.172,0.021,1.574c7.419-2.69,11.373-0.694,16.161-5.418c0.407-0.791-2.233-0.942,0.531-1.771
							c-5.337-0.322-9.211,1.945-13.612,3.939l1.283-0.258c-2.89,4.459-2.986-0.357-8.481,2.596c1.194-1.87,3.761-2.417,4.624-3.4
							c-7.461-1.3-9.204,4.25-14.566,1.918l0.465-0.25c-1.099-0.076-2.715,1.101-4.136,1.856c0.641,0.315,2.213,0.142,3.316,0.207
							c-1.447,0.763-1.757,2.554-2.057,3.373c-2.2-1.138-1.935,1.479-4.784,1.537c-1.461-1.114,1.7-2.06,2.45-3.19l-2.841,2.08
							c-2.83,1.076-3.31-0.389-5.238-0.475c-1.726,2.3,1.729-0.021,0.736,2.375c-2.238-1.616-2.225,4.861,3.423,5.381
							c4.625,1.221,9.991,0.753,13.313,0.018c-2.305,0.192-0.83,1.646-3.661,1.348c1.017,0.383,4.689-0.396,4.686-1.577
							c4.619-1.148,10.514-0.767,14.999-0.179l-1.377-1.057c3.44-2.311,9.369,0.479,15.747-1.578l-0.139-0.007
							c2.052-0.543,3.421-3.641,7.279-3.575C118.789,474.021,116.729,474.183,117.143,475.558z"/>
						<path d="M139.272,469.084l-1.788,2.007c2.376-0.072,4.848-2.678,4.154-3.641c-1.486,0.636-3.634,0.299-3.734,1.281
							C138.201,468.918,138.283,469.499,139.272,469.084z"/>
						<path d="M182.786,461.512c0.818-0.478,0.509-1.065,0.822-1.571c-9.355,1.225-20.718,3.845-24.6,3.252
							c-3.198,0.09-3.342,2.604-7.11,3.914l-2.056-1.307c-1.895,1.438-8.619,0.896-5.841,3.139c0.279,0.189,1.579-1.619,3.448-1.487
							l-0.11,0.979l4.057-1.11l-1.097,1.406c5.924,0.561,3.298-4.212,10.469-4.404l0.368,2.345c4.645-0.739,6.914-1.81,11.239-1.045
							c0,0-0.145-1.183-0.874-0.591c-0.787-0.01-1.932-0.795-1.513-1.571c6.821-2.923-0.887,1.563,4.191,1.76
							c5.765-2.469,17.235-5.229,20.77-3.534c-2.995-1.168,1.103-3.058,4.538-3.231c1.63,0.694-0.956,1.502-1.443,2.255
							c1.602,0.105,2.942,0.588,4.48,0.096c-2.149-1.121-0.96-3.002,2.685-4.136C196.94,455.991,190.899,460.688,182.786,461.512z"
							/>
						<path d="M184.952,459.235c-0.818,0.177-1.172,0.438-1.344,0.705l3.239-0.449L184.952,459.235z"/>
					</g>
				</g>
			</g>
		</g>
	</g>
</g>
<path d="M189.408,403.648c-2.135,3.479-6.718,4.566-10.197,2.428c-2.269-1.396-3.527-3.833-3.527-6.323l-0.227-4.625l4.219-1.935
	c2.238-1.159,5.01-1.159,7.306,0.257C190.462,395.59,191.545,400.169,189.408,403.648L189.408,403.648z M194.148,375.622
	l-0.303-0.602c-1.726-3.458-6.763-4.49-11.191-2.282l-16.868,8.406l-16.909-9.802l17.81-10.228l15.933,7.835
	c4.442,2.187,9.468,1.131,11.173-2.345l0.296-0.601c1.709-3.477-0.522-8.101-4.958-10.284l-15.633-7.694v-17.508
	c-0.004-4.943-3.173-8.987-7.044-8.99h-0.667c-3.875,0-7.027,4.047-7.034,8.994l0.007,16.798l-17.84,10.246v-20.563l14.474-9.005
	c4.188-2.612,5.951-7.443,3.902-10.723l-0.347-0.575c-2.049-3.29-7.158-3.836-11.356-1.227l-14.798,9.207l-14.858-9.249
	c-4.203-2.616-9.309-2.063-11.354,1.22l-0.352,0.571c-2.049,3.287-0.289,8.114,3.914,10.724l14.866,9.252v20.299l-18.139-10.514
	l0.003-16.018c0-4.947-3.168-8.99-7.042-8.99h-0.669c-3.873,0-7.038,4.039-7.041,8.99v17.503l-15.631,7.695
	c-4.44,2.176-6.671,6.811-4.961,10.283l0.292,0.602c1.711,3.469,6.739,4.528,11.177,2.345l16.661-8.193l17.383,10.074l-17.383,9.984
	l-16.575-8.272c-4.43-2.2-9.466-1.173-11.189,2.29l-0.296,0.598c-1.729,3.466,0.479,8.104,4.905,10.311l15.67,7.812l-0.085,17.421
	c-0.027,4.943,3.124,9.011,6.993,9.027l0.673,0.004c3.869,0.017,7.047-4.012,7.079-8.959l0.081-16.056l18.102-10.395v19.697
	l-15.162,9.567c-4.181,2.641-5.914,7.481-3.847,10.751l0.359,0.57c2.069,3.271,7.179,3.789,11.364,1.147l7.286-4.597v40.853h15.904
	v-40.494l7.052,4.322c4.212,2.584,9.314,2.006,11.342-1.291l0.354-0.578c2.018-3.297,0.223-8.113-3.992-10.698l-14.753-9.053v-20.13
	l17.916,10.386l0.083,15.739c0.027,4.951,3.21,8.98,7.079,8.961l0.678-0.004c3.864-0.021,7.007-4.084,6.986-9.028l-0.089-17.421
	l15.664-7.808C193.664,383.722,195.872,379.084,194.148,375.622L194.148,375.622z M76.335,403.902
	c2.136,3.479,6.719,4.572,10.193,2.432c2.276-1.406,3.53-3.854,3.526-6.348l0.225-4.596l-4.205-1.939
	c-2.238-1.162-5.016-1.158-7.314,0.255C75.285,395.845,74.193,400.427,76.335,403.902L76.335,403.902z M76.195,338.71
	c-2.16,3.466-1.092,8.052,2.375,10.211c2.257,1.406,4.989,1.444,7.22,0.341l4.246-1.863l-0.145-4.631
	c0.047-2.524-1.197-5.006-3.488-6.429C82.939,334.175,78.352,335.241,76.195,338.71L76.195,338.71z M132.934,306
	c4.091,0,7.416,3.328,7.416,7.413c0,2.654-1.413,4.991-3.523,6.302l-3.834,2.629l-3.861-2.571c-2.156-1.3-3.603-3.665-3.603-6.36
	C125.531,309.328,128.855,306,132.934,306L132.934,306z M189.429,338.263c2.159,3.465,1.094,8.052-2.373,10.211
	c-2.269,1.413-5.012,1.44-7.244,0.326l-4.225-1.846l0.151-4.61c-0.059-2.527,1.19-5.027,3.486-6.457
	C182.687,333.735,187.272,334.801,189.429,338.263L189.429,338.263z"/>
</svg>
